<?xml version="1.0" standalone="no"?>
<!DOCTYPE svg PUBLIC "-//W3C//DTD SVG 20010904//EN"
 "http://www.w3.org/TR/2001/REC-SVG-20010904/DTD/svg10.dtd">
<svg version="1.0" xmlns="http://www.w3.org/2000/svg"
 width="260.000000pt" height="260.000000pt" viewBox="0 0 260.000000 260.000000"
 preserveAspectRatio="xMidYMid meet">
<metadata>
Created by potrace 1.11, written by Peter Selinger 2001-2013
</metadata>
<g transform="translate(0.000000,260.000000) scale(0.100000,-0.100000)"
fill="#000000" stroke="none">
<path d="M243 2581 c-29 -9 -69 -29 -90 -44 -46 -32 -107 -103 -118 -137 -4
-14 -13 -31 -19 -39 -8 -10 -11 -297 -11 -1055 l0 -1041 26 -56 c35 -73 104
-143 176 -177 l58 -27 1035 0 1035 0 57 27 c73 34 142 103 176 176 l27 57 2
1022 c2 879 1 1027 -12 1063 -8 23 -12 47 -8 54 3 6 3 8 -2 4 -4 -4 -24 16
-44 44 -42 59 -113 112 -180 132 -38 12 -213 14 -1051 15 -943 0 -1008 -1
-1057 -18z"/>
</g>
</svg>
